<mxfile host="app.diagrams.net" modified="2024-04-03T22:03:51.658Z" agent="Mozilla/5.0 (X11; Linux x86_64; rv:125.0) Gecko/20100101 Firefox/125.0" etag="QMAhxhIRHMiKdQnWY7xH" version="24.2.2" type="device">
  <diagram name="Page-1" id="4XVdnm4Mh2VWJTdFokWx">
    <mxGraphModel dx="1749" dy="2654" grid="1" gridSize="10" guides="1" tooltips="1" connect="1" arrows="1" fold="1" page="1" pageScale="1" pageWidth="850" pageHeight="1100" math="0" shadow="0">
      <root>
        <mxCell id="0" />
        <mxCell id="1" parent="0" />
        <mxCell id="kOX-skd0nRhdrvtllHpR-62" value="" style="rounded=0;whiteSpace=wrap;html=1;" vertex="1" parent="1">
          <mxGeometry x="760" y="190" width="220" height="340" as="geometry" />
        </mxCell>
        <mxCell id="kOX-skd0nRhdrvtllHpR-64" style="edgeStyle=orthogonalEdgeStyle;rounded=0;orthogonalLoop=1;jettySize=auto;html=1;exitX=1;exitY=0.5;exitDx=0;exitDy=0;entryX=0;entryY=0.5;entryDx=0;entryDy=0;startArrow=classic;startFill=1;" edge="1" parent="1" source="kOX-skd0nRhdrvtllHpR-61" target="kOX-skd0nRhdrvtllHpR-62">
          <mxGeometry relative="1" as="geometry" />
        </mxCell>
        <mxCell id="kOX-skd0nRhdrvtllHpR-65" style="rounded=0;orthogonalLoop=1;jettySize=auto;html=1;exitX=0.5;exitY=0;exitDx=0;exitDy=0;entryX=0.5;entryY=1;entryDx=0;entryDy=0;startArrow=classic;startFill=1;" edge="1" parent="1" source="kOX-skd0nRhdrvtllHpR-61" target="kOX-skd0nRhdrvtllHpR-49">
          <mxGeometry relative="1" as="geometry" />
        </mxCell>
        <mxCell id="kOX-skd0nRhdrvtllHpR-61" value="" style="rounded=0;whiteSpace=wrap;html=1;" vertex="1" parent="1">
          <mxGeometry x="470" y="190" width="220" height="340" as="geometry" />
        </mxCell>
        <mxCell id="kOX-skd0nRhdrvtllHpR-51" value="&lt;div align=&quot;left&quot;&gt;&lt;br&gt;&lt;/div&gt;" style="rounded=0;whiteSpace=wrap;html=1;align=left;" vertex="1" parent="1">
          <mxGeometry x="200" y="550" width="280" height="130" as="geometry" />
        </mxCell>
        <mxCell id="kOX-skd0nRhdrvtllHpR-52" value="Optional" style="text;html=1;align=center;verticalAlign=middle;resizable=0;points=[];autosize=1;strokeColor=none;fillColor=none;fontStyle=0" vertex="1" parent="1">
          <mxGeometry x="200" y="550" width="70" height="30" as="geometry" />
        </mxCell>
        <mxCell id="kOX-skd0nRhdrvtllHpR-49" value="&lt;div align=&quot;left&quot;&gt;&lt;br&gt;&lt;/div&gt;" style="rounded=0;whiteSpace=wrap;html=1;align=left;" vertex="1" parent="1">
          <mxGeometry x="385" y="-20" width="390" height="140" as="geometry" />
        </mxCell>
        <mxCell id="prgVslOQz4MrDE7OXUun-4" value="" style="edgeStyle=orthogonalEdgeStyle;rounded=0;orthogonalLoop=1;jettySize=auto;html=1;" parent="1" source="prgVslOQz4MrDE7OXUun-2" edge="1">
          <mxGeometry relative="1" as="geometry">
            <mxPoint x="280" y="370" as="targetPoint" />
          </mxGeometry>
        </mxCell>
        <mxCell id="prgVslOQz4MrDE7OXUun-2" value="HTTP Client" style="shape=umlActor;verticalLabelPosition=bottom;verticalAlign=top;html=1;outlineConnect=0;" parent="1" vertex="1">
          <mxGeometry x="120" y="340" width="30" height="60" as="geometry" />
        </mxCell>
        <mxCell id="prgVslOQz4MrDE7OXUun-7" style="rounded=0;orthogonalLoop=1;jettySize=auto;html=1;entryX=0;entryY=0.5;entryDx=0;entryDy=0;" parent="1" target="prgVslOQz4MrDE7OXUun-6" edge="1" source="kOX-skd0nRhdrvtllHpR-10">
          <mxGeometry relative="1" as="geometry">
            <mxPoint x="310" y="360" as="sourcePoint" />
          </mxGeometry>
        </mxCell>
        <mxCell id="prgVslOQz4MrDE7OXUun-10" style="edgeStyle=orthogonalEdgeStyle;rounded=0;orthogonalLoop=1;jettySize=auto;html=1;exitX=1;exitY=0.5;exitDx=0;exitDy=0;entryX=0;entryY=0.5;entryDx=0;entryDy=0;" parent="1" source="kOX-skd0nRhdrvtllHpR-13" target="prgVslOQz4MrDE7OXUun-8" edge="1">
          <mxGeometry relative="1" as="geometry" />
        </mxCell>
        <mxCell id="prgVslOQz4MrDE7OXUun-11" style="rounded=0;orthogonalLoop=1;jettySize=auto;html=1;exitX=1;exitY=0.5;exitDx=0;exitDy=0;entryX=0;entryY=0.5;entryDx=0;entryDy=0;" parent="1" source="kOX-skd0nRhdrvtllHpR-16" target="prgVslOQz4MrDE7OXUun-9" edge="1">
          <mxGeometry relative="1" as="geometry" />
        </mxCell>
        <mxCell id="kOX-skd0nRhdrvtllHpR-47" style="edgeStyle=orthogonalEdgeStyle;rounded=0;orthogonalLoop=1;jettySize=auto;html=1;exitX=0.5;exitY=1;exitDx=0;exitDy=0;entryX=0.5;entryY=0;entryDx=0;entryDy=0;" edge="1" parent="1" source="prgVslOQz4MrDE7OXUun-5" target="kOX-skd0nRhdrvtllHpR-46">
          <mxGeometry relative="1" as="geometry" />
        </mxCell>
        <mxCell id="kOX-skd0nRhdrvtllHpR-48" value="gRPC bridge" style="edgeLabel;html=1;align=center;verticalAlign=middle;resizable=0;points=[];" vertex="1" connectable="0" parent="kOX-skd0nRhdrvtllHpR-47">
          <mxGeometry x="0.0706" y="-4" relative="1" as="geometry">
            <mxPoint x="4" y="58" as="offset" />
          </mxGeometry>
        </mxCell>
        <mxCell id="prgVslOQz4MrDE7OXUun-5" value="&lt;div&gt;Edge&lt;/div&gt;&lt;div&gt;proxy&lt;/div&gt;&lt;div&gt;HTTP&lt;br&gt;&lt;/div&gt;" style="rhombus;whiteSpace=wrap;html=1;fillColor=#e1d5e7;strokeColor=#9673a6;" parent="1" vertex="1">
          <mxGeometry x="280" y="330" width="80" height="80" as="geometry" />
        </mxCell>
        <mxCell id="prgVslOQz4MrDE7OXUun-6" value="Serwer HTTP" style="rounded=0;whiteSpace=wrap;html=1;" parent="1" vertex="1">
          <mxGeometry x="530" y="230" width="120" height="60" as="geometry" />
        </mxCell>
        <mxCell id="prgVslOQz4MrDE7OXUun-8" value="Serwer HTTP" style="rounded=0;whiteSpace=wrap;html=1;" parent="1" vertex="1">
          <mxGeometry x="530" y="340" width="120" height="60" as="geometry" />
        </mxCell>
        <mxCell id="prgVslOQz4MrDE7OXUun-9" value="Serwer HTTP" style="rounded=0;whiteSpace=wrap;html=1;" parent="1" vertex="1">
          <mxGeometry x="530" y="450" width="120" height="60" as="geometry" />
        </mxCell>
        <mxCell id="prgVslOQz4MrDE7OXUun-12" value="gRPC Server" style="rounded=0;whiteSpace=wrap;html=1;" parent="1" vertex="1">
          <mxGeometry x="615" y="35" width="120" height="60" as="geometry" />
        </mxCell>
        <mxCell id="prgVslOQz4MrDE7OXUun-30" value="&lt;div&gt;Postgres&lt;/div&gt;&lt;div&gt;database&lt;br&gt;&lt;/div&gt;" style="whiteSpace=wrap;html=1;rounded=0;" parent="1" vertex="1">
          <mxGeometry x="820" y="380" width="130" height="60" as="geometry" />
        </mxCell>
        <mxCell id="kOX-skd0nRhdrvtllHpR-11" value="" style="rounded=0;orthogonalLoop=1;jettySize=auto;html=1;entryX=0;entryY=0.5;entryDx=0;entryDy=0;" edge="1" parent="1" target="kOX-skd0nRhdrvtllHpR-10">
          <mxGeometry relative="1" as="geometry">
            <mxPoint x="360" y="370" as="sourcePoint" />
            <mxPoint x="520" y="270" as="targetPoint" />
          </mxGeometry>
        </mxCell>
        <mxCell id="kOX-skd0nRhdrvtllHpR-21" value="/path3" style="edgeLabel;html=1;align=center;verticalAlign=middle;resizable=0;points=[];" vertex="1" connectable="0" parent="kOX-skd0nRhdrvtllHpR-11">
          <mxGeometry x="-0.0059" relative="1" as="geometry">
            <mxPoint as="offset" />
          </mxGeometry>
        </mxCell>
        <mxCell id="kOX-skd0nRhdrvtllHpR-10" value="Envoy" style="rounded=0;whiteSpace=wrap;html=1;fillColor=#e1d5e7;strokeColor=#9673a6;horizontal=0;" vertex="1" parent="1">
          <mxGeometry x="490" y="230" width="40" height="60" as="geometry" />
        </mxCell>
        <mxCell id="kOX-skd0nRhdrvtllHpR-14" value="" style="edgeStyle=orthogonalEdgeStyle;rounded=0;orthogonalLoop=1;jettySize=auto;html=1;exitX=1;exitY=0.5;exitDx=0;exitDy=0;entryX=0;entryY=0.5;entryDx=0;entryDy=0;" edge="1" parent="1" source="prgVslOQz4MrDE7OXUun-5" target="kOX-skd0nRhdrvtllHpR-13">
          <mxGeometry relative="1" as="geometry">
            <mxPoint x="360" y="370" as="sourcePoint" />
            <mxPoint x="480" y="370" as="targetPoint" />
          </mxGeometry>
        </mxCell>
        <mxCell id="kOX-skd0nRhdrvtllHpR-20" value="/path2" style="edgeLabel;html=1;align=center;verticalAlign=middle;resizable=0;points=[];" vertex="1" connectable="0" parent="kOX-skd0nRhdrvtllHpR-14">
          <mxGeometry x="-0.0059" relative="1" as="geometry">
            <mxPoint as="offset" />
          </mxGeometry>
        </mxCell>
        <mxCell id="kOX-skd0nRhdrvtllHpR-13" value="Envoy" style="rounded=0;whiteSpace=wrap;html=1;fillColor=#e1d5e7;strokeColor=#9673a6;horizontal=0;" vertex="1" parent="1">
          <mxGeometry x="490" y="340" width="40" height="60" as="geometry" />
        </mxCell>
        <mxCell id="kOX-skd0nRhdrvtllHpR-17" value="" style="rounded=0;orthogonalLoop=1;jettySize=auto;html=1;exitX=1;exitY=0.5;exitDx=0;exitDy=0;entryX=0;entryY=0.5;entryDx=0;entryDy=0;" edge="1" parent="1" source="prgVslOQz4MrDE7OXUun-5" target="kOX-skd0nRhdrvtllHpR-16">
          <mxGeometry relative="1" as="geometry">
            <mxPoint x="360" y="370" as="sourcePoint" />
            <mxPoint x="530" y="470" as="targetPoint" />
          </mxGeometry>
        </mxCell>
        <mxCell id="kOX-skd0nRhdrvtllHpR-18" value="/path3" style="edgeLabel;html=1;align=center;verticalAlign=middle;resizable=0;points=[];" vertex="1" connectable="0" parent="kOX-skd0nRhdrvtllHpR-17">
          <mxGeometry x="-0.0082" y="1" relative="1" as="geometry">
            <mxPoint as="offset" />
          </mxGeometry>
        </mxCell>
        <mxCell id="kOX-skd0nRhdrvtllHpR-16" value="Envoy" style="rounded=0;whiteSpace=wrap;html=1;fillColor=#e1d5e7;strokeColor=#9673a6;horizontal=0;" vertex="1" parent="1">
          <mxGeometry x="490" y="450" width="40" height="60" as="geometry" />
        </mxCell>
        <mxCell id="kOX-skd0nRhdrvtllHpR-22" value="Serwer HTTP" style="rounded=0;whiteSpace=wrap;html=1;" vertex="1" parent="1">
          <mxGeometry x="540" y="220" width="120" height="60" as="geometry" />
        </mxCell>
        <mxCell id="kOX-skd0nRhdrvtllHpR-23" value="Envoy" style="rounded=0;whiteSpace=wrap;html=1;fillColor=#e1d5e7;strokeColor=#9673a6;horizontal=0;" vertex="1" parent="1">
          <mxGeometry x="500" y="220" width="40" height="60" as="geometry" />
        </mxCell>
        <mxCell id="kOX-skd0nRhdrvtllHpR-24" value="HTTP Server" style="rounded=0;whiteSpace=wrap;html=1;" vertex="1" parent="1">
          <mxGeometry x="550" y="210" width="120" height="60" as="geometry" />
        </mxCell>
        <mxCell id="kOX-skd0nRhdrvtllHpR-25" value="Envoy" style="rounded=0;whiteSpace=wrap;html=1;fillColor=#e1d5e7;strokeColor=#9673a6;horizontal=0;" vertex="1" parent="1">
          <mxGeometry x="510" y="210" width="40" height="60" as="geometry" />
        </mxCell>
        <mxCell id="kOX-skd0nRhdrvtllHpR-26" value="Serwer HTTP" style="rounded=0;whiteSpace=wrap;html=1;" vertex="1" parent="1">
          <mxGeometry x="540" y="330" width="120" height="60" as="geometry" />
        </mxCell>
        <mxCell id="kOX-skd0nRhdrvtllHpR-27" value="Envoy" style="rounded=0;whiteSpace=wrap;html=1;fillColor=#e1d5e7;strokeColor=#9673a6;horizontal=0;" vertex="1" parent="1">
          <mxGeometry x="500" y="330" width="40" height="60" as="geometry" />
        </mxCell>
        <mxCell id="kOX-skd0nRhdrvtllHpR-28" value="HTTP Server" style="rounded=0;whiteSpace=wrap;html=1;" vertex="1" parent="1">
          <mxGeometry x="550" y="320" width="120" height="60" as="geometry" />
        </mxCell>
        <mxCell id="kOX-skd0nRhdrvtllHpR-29" value="Envoy" style="rounded=0;whiteSpace=wrap;html=1;fillColor=#e1d5e7;strokeColor=#9673a6;horizontal=0;" vertex="1" parent="1">
          <mxGeometry x="510" y="320" width="40" height="60" as="geometry" />
        </mxCell>
        <mxCell id="kOX-skd0nRhdrvtllHpR-30" value="Serwer HTTP" style="rounded=0;whiteSpace=wrap;html=1;" vertex="1" parent="1">
          <mxGeometry x="540" y="440" width="120" height="60" as="geometry" />
        </mxCell>
        <mxCell id="kOX-skd0nRhdrvtllHpR-31" value="Envoy" style="rounded=0;whiteSpace=wrap;html=1;fillColor=#e1d5e7;strokeColor=#9673a6;horizontal=0;" vertex="1" parent="1">
          <mxGeometry x="500" y="440" width="40" height="60" as="geometry" />
        </mxCell>
        <mxCell id="kOX-skd0nRhdrvtllHpR-32" value="HTTP Server" style="rounded=0;whiteSpace=wrap;html=1;" vertex="1" parent="1">
          <mxGeometry x="550" y="430" width="120" height="60" as="geometry" />
        </mxCell>
        <mxCell id="kOX-skd0nRhdrvtllHpR-33" value="Envoy" style="rounded=0;whiteSpace=wrap;html=1;fillColor=#e1d5e7;strokeColor=#9673a6;horizontal=0;" vertex="1" parent="1">
          <mxGeometry x="510" y="430" width="40" height="60" as="geometry" />
        </mxCell>
        <mxCell id="kOX-skd0nRhdrvtllHpR-34" value="Envoy" style="rounded=0;whiteSpace=wrap;html=1;fillColor=#e1d5e7;strokeColor=#9673a6;horizontal=0;" vertex="1" parent="1">
          <mxGeometry x="575" y="35" width="40" height="60" as="geometry" />
        </mxCell>
        <mxCell id="kOX-skd0nRhdrvtllHpR-35" value="gRPC Server" style="rounded=0;whiteSpace=wrap;html=1;" vertex="1" parent="1">
          <mxGeometry x="625" y="25" width="120" height="60" as="geometry" />
        </mxCell>
        <mxCell id="kOX-skd0nRhdrvtllHpR-36" value="Envoy" style="rounded=0;whiteSpace=wrap;html=1;fillColor=#e1d5e7;strokeColor=#9673a6;horizontal=0;" vertex="1" parent="1">
          <mxGeometry x="585" y="25" width="40" height="60" as="geometry" />
        </mxCell>
        <mxCell id="kOX-skd0nRhdrvtllHpR-37" value="gRPC Server" style="rounded=0;whiteSpace=wrap;html=1;" vertex="1" parent="1">
          <mxGeometry x="635" y="15" width="120" height="60" as="geometry" />
        </mxCell>
        <mxCell id="kOX-skd0nRhdrvtllHpR-38" value="Envoy" style="rounded=0;whiteSpace=wrap;html=1;fillColor=#e1d5e7;strokeColor=#9673a6;horizontal=0;" vertex="1" parent="1">
          <mxGeometry x="595" y="15" width="40" height="60" as="geometry" />
        </mxCell>
        <mxCell id="kOX-skd0nRhdrvtllHpR-39" value="gRPC Server" style="rounded=0;whiteSpace=wrap;html=1;" vertex="1" parent="1">
          <mxGeometry x="830" y="280" width="120" height="60" as="geometry" />
        </mxCell>
        <mxCell id="kOX-skd0nRhdrvtllHpR-40" value="Envoy" style="rounded=0;whiteSpace=wrap;html=1;fillColor=#e1d5e7;strokeColor=#9673a6;horizontal=0;" vertex="1" parent="1">
          <mxGeometry x="790" y="280" width="40" height="60" as="geometry" />
        </mxCell>
        <mxCell id="kOX-skd0nRhdrvtllHpR-42" style="edgeStyle=orthogonalEdgeStyle;rounded=0;orthogonalLoop=1;jettySize=auto;html=1;exitX=1;exitY=0.5;exitDx=0;exitDy=0;entryX=0;entryY=0.5;entryDx=0;entryDy=0;" edge="1" parent="1" source="kOX-skd0nRhdrvtllHpR-41" target="kOX-skd0nRhdrvtllHpR-34">
          <mxGeometry relative="1" as="geometry" />
        </mxCell>
        <mxCell id="kOX-skd0nRhdrvtllHpR-41" value="&lt;div&gt;gRPC&lt;/div&gt;&lt;div&gt;load&lt;/div&gt;&lt;div&gt;balancer&lt;br&gt;&lt;/div&gt;" style="rhombus;whiteSpace=wrap;html=1;fillColor=#e1d5e7;strokeColor=#9673a6;" vertex="1" parent="1">
          <mxGeometry x="405" y="25" width="80" height="80" as="geometry" />
        </mxCell>
        <mxCell id="kOX-skd0nRhdrvtllHpR-43" value="&lt;div&gt;Envoy&lt;/div&gt;" style="rounded=0;whiteSpace=wrap;html=1;fillColor=#e1d5e7;strokeColor=#9673a6;horizontal=0;align=center;" vertex="1" parent="1">
          <mxGeometry x="790" y="380" width="40" height="60" as="geometry" />
        </mxCell>
        <mxCell id="kOX-skd0nRhdrvtllHpR-45" value="gRPC Server" style="rounded=0;whiteSpace=wrap;html=1;" vertex="1" parent="1">
          <mxGeometry x="340" y="600" width="120" height="60" as="geometry" />
        </mxCell>
        <mxCell id="kOX-skd0nRhdrvtllHpR-46" value="Envoy" style="rounded=0;whiteSpace=wrap;html=1;fillColor=#e1d5e7;strokeColor=#9673a6;horizontal=0;" vertex="1" parent="1">
          <mxGeometry x="300" y="600" width="40" height="60" as="geometry" />
        </mxCell>
        <mxCell id="kOX-skd0nRhdrvtllHpR-50" value="Optional" style="text;html=1;align=center;verticalAlign=middle;resizable=0;points=[];autosize=1;strokeColor=none;fillColor=none;fontStyle=0" vertex="1" parent="1">
          <mxGeometry x="385" y="-20" width="70" height="30" as="geometry" />
        </mxCell>
        <mxCell id="kOX-skd0nRhdrvtllHpR-53" value="Protocol decode with statistics" style="text;html=1;align=center;verticalAlign=middle;resizable=0;points=[];autosize=1;strokeColor=none;fillColor=none;" vertex="1" parent="1">
          <mxGeometry x="780" y="440" width="180" height="30" as="geometry" />
        </mxCell>
      </root>
    </mxGraphModel>
  </diagram>
</mxfile>
